<?xml version="1.0" encoding="UTF-8"?>
<svg xmlns="http://www.w3.org/2000/svg" xmlns:se="https://standardebooks.org/vocab/1.0" version="1.1" viewBox="0 0 1400 440" se:generated-from="98c8d00cd7c097253cab6e7c83b9b048bec8d374">
	<path d="M 456.54897,68.245613 474.88815,68.245613 474.88815,130 492.4788,130 492.4788,68.245613 510.81798,68.245613 510.81798,52.807016 456.54897,52.807016 456.54897,68.245613 Z"/>
	<path d="M 539.74342,99.029239 564.63231,99.029239 564.63231,130 582.22295,130 582.22295,52.807016 564.63231,52.807016 564.63231,83.590642 539.74342,83.590642 539.74342,52.807016 522.15277,52.807016 522.15277,130 539.74342,130 539.74342,99.029239 Z"/>
	<path d="M 642.58845,52.807016 598.42471,52.807016 598.42471,130 642.58845,130 642.58845,114.5614 616.01535,114.5614 616.01535,99.029239 641.46564,99.029239 641.46564,83.590642 616.01535,83.590642 616.01535,68.245613 642.58845,68.245613 642.58845,52.807016 Z"/>
	<path d="M 726.43787,114.09357 C 708.75366,114.09357 700.98757,101.74269 700.98757,91.356724 700.98757,81.064327 708.75366,68.713449 726.43787,68.713449 735.42032,68.713449 741.59576,73.485379 741.59576,73.485379 L 749.08114,58.514619 C 749.08114,58.514619 740.47295,51.403507 723.72442,51.403507 701.82968,51.403507 681.89985,69.36842 681.89985,91.543859 681.89985,113.62573 701.92325,131.40351 723.72442,131.40351 740.47295,131.40351 749.08114,124.2924 749.08114,124.2924 L 741.59576,109.32164 C 741.59576,109.32164 735.42032,114.09357 726.43787,114.09357 Z"/>
	<path d="M 800.10746,52.807016 783.82676,52.807016 752.66886,130 771.56945,130 777.27705,114.5614 806.65717,114.5614 812.36477,130 831.26536,130 800.10746,52.807016 Z M 800.66886,99.122806 783.26536,99.122806 791.87354,76.666666 792.06068,76.666666 800.66886,99.122806 Z"/>
	<path d="M 856.77559,52.807016 839.18495,52.807016 839.18495,130 883.34869,130 883.34869,114.5614 856.77559,114.5614 856.77559,52.807016 Z"/>
	<path d="M 914.58992,52.807016 896.99928,52.807016 896.99928,130 941.16302,130 941.16302,114.5614 914.58992,114.5614 914.58992,52.807016 Z"/>
	<path d="M 371.77923,191.35672 C 371.77923,213.90643 387.8728,231.40351 410.70321,231.40351 432.87865,231.40351 449.53362,213.90643 449.53362,191.35672 449.53362,168.80702 432.13011,151.40351 410.70321,151.40351 389.46345,151.40351 371.77923,168.80702 371.77923,191.35672 Z M 390.77339,191.35672 C 390.77339,179.84795 397.13596,168.33918 410.70321,168.33918 424.36403,168.33918 430.53947,179.84795 430.53947,191.35672 430.53947,202.8655 424.7383,214.37427 410.70321,214.37427 396.29385,214.37427 390.77339,202.8655 390.77339,191.35672 Z"/>
	<path d="M 506.92689,152.80702 462.29532,152.80702 462.29532,230 479.88596,230 479.88596,199.02924 504.86842,199.02924 504.86842,183.59064 479.88596,183.59064 479.88596,168.24561 506.92689,168.24561 506.92689,152.80702 Z"/>
	<path d="M 541.44299,168.24561 559.78217,168.24561 559.78217,230 577.37281,230 577.37281,168.24561 595.71199,168.24561 595.71199,152.80702 541.44299,152.80702 541.44299,168.24561 Z"/>
	<path d="M 624.63742,199.02924 649.52631,199.02924 649.52631,230 667.11696,230 667.11696,152.80702 649.52631,152.80702 649.52631,183.59064 624.63742,183.59064 624.63742,152.80702 607.04678,152.80702 607.04678,230 624.63742,230 624.63742,199.02924 Z"/>
	<path d="M 727.48245,152.80702 683.31871,152.80702 683.31871,230 727.48245,230 727.48245,214.5614 700.90935,214.5614 700.90935,199.02924 726.35964,199.02924 726.35964,183.59064 700.90935,183.59064 700.90935,168.24561 727.48245,168.24561 727.48245,152.80702 Z"/>
	<path d="M 824.54971,230 844.0117,230 866,152.80702 846.53801,152.80702 833.34503,205.76608 832.87719,205.76608 818.84211,152.80702 805.55556,152.80702 791.52047,205.76608 791.05263,205.76608 777.85965,152.80702 758.30409,152.80702 780.2924,230 799.84795,230 812.19883,186.67836 824.54971,230 Z"/>
	<path d="M 892.80995,152.80702 875.21931,152.80702 875.21931,230 892.80995,230 892.80995,152.80702 Z"/>
	<path d="M 926.68422,152.80702 909.09358,152.80702 909.09358,230 953.25732,230 953.25732,214.5614 926.68422,214.5614 926.68422,152.80702 Z"/>
	<path d="M 966.90791,152.80702 966.90791,230 989.27048,230 C 1010.5102,230 1028.1945,213.90643 1028.1945,191.35672 1028.1945,168.90058 1010.4167,152.80702 989.27048,152.80702 L 966.90791,152.80702 Z M 984.49855,214.2807 984.49855,168.52631 987.212,168.52631 C 1000.3114,168.52631 1009.2003,178.53801 1009.2003,191.45029 1009.1067,204.36257 1000.2179,214.2807 987.212,214.2807 L 984.49855,214.2807 Z"/>
	<path d="M 432.67928,332.10526 419.4863,332.10526 419.4863,370.2807 C 419.4863,376.10526 416.6091,378.42105 412.81963,378.42105 409.45121,378.42105 405.31086,374.49123 405.31086,374.49123 L 401.10033,385.50877 C 401.10033,385.50877 406.36349,391.05263 414.64419,391.05263 426.22314,391.05263 432.67928,385.01754 432.67928,373.64912 L 432.67928,332.10526 Z"/>
	<path d="M 474.78454,332.10526 462.57402,332.10526 439.2056,390 453.38103,390 457.66174,378.42105 479.69682,378.42105 483.97752,390 498.15296,390 474.78454,332.10526 Z M 475.20559,366.84211 462.15296,366.84211 468.6091,350 468.74945,350 475.20559,366.84211 Z"/>
	<path d="M 533.95669,378.07018 C 520.69353,378.07018 514.86897,368.80702 514.86897,361.01754 514.86897,353.29825 520.69353,344.03509 533.95669,344.03509 540.69353,344.03509 545.32511,347.61404 545.32511,347.61404 L 550.93915,336.38597 C 550.93915,336.38597 544.48301,331.05263 531.9216,331.05263 515.50055,331.05263 500.55318,344.52632 500.55318,361.1579 500.55318,377.7193 515.57072,391.05263 531.9216,391.05263 544.48301,391.05263 550.93915,385.7193 550.93915,385.7193 L 545.32511,374.49123 C 545.32511,374.49123 540.69353,378.07018 533.95669,378.07018 Z"/>
	<path d="M 613.75713,390 586.80976,359.54386 610.108,332.10526 594.108,332.10526 574.24836,355.75439 574.24836,332.10526 561.05537,332.10526 561.05537,390 574.24836,390 574.24836,365.4386 595.58169,390 613.75713,390 Z"/>
	<path d="M 658.6727,332.10526 645.47972,332.10526 645.47972,390 678.60253,390 678.60253,378.42105 658.6727,378.42105 658.6727,332.10526 Z"/>
	<path d="M 687.49396,361.01754 C 687.49396,377.92982 699.56414,391.05263 716.68694,391.05263 733.31852,391.05263 745.80975,377.92982 745.80975,361.01754 745.80975,344.10526 732.75712,331.05263 716.68694,331.05263 700.75712,331.05263 687.49396,344.10526 687.49396,361.01754 Z M 701.73958,361.01754 C 701.73958,352.38597 706.51151,343.75439 716.68694,343.75439 726.93256,343.75439 731.56414,352.38597 731.56414,361.01754 731.56414,369.64912 727.21326,378.2807 716.68694,378.2807 705.87993,378.2807 701.73958,369.64912 701.73958,361.01754 Z"/>
	<path d="M 769.82402,354.07018 769.96437,354.07018 792.98192,390 806.1749,390 806.1749,332.10526 792.98192,332.10526 792.98192,368.03509 792.84157,368.03509 769.82402,332.10526 756.63104,332.10526 756.63104,390 769.82402,390 769.82402,354.07018 Z"/>
	<path d="M 819.608,332.10526 819.608,390 836.37993,390 C 852.30975,390 865.57291,377.92982 865.57291,361.01754 865.57291,344.17544 852.23958,332.10526 836.37993,332.10526 L 819.608,332.10526 Z M 832.80098,378.21053 832.80098,343.89474 834.83607,343.89474 C 844.66063,343.89474 851.3273,351.40351 851.3273,361.08772 851.25712,370.77193 844.59046,378.21053 834.83607,378.21053 L 832.80098,378.21053 Z"/>
	<path d="M 873.82071,361.01754 C 873.82071,377.92982 885.89089,391.05263 903.0137,391.05263 919.64527,391.05263 932.1365,377.92982 932.1365,361.01754 932.1365,344.10526 919.08387,331.05263 903.0137,331.05263 887.08387,331.05263 873.82071,344.10526 873.82071,361.01754 Z M 888.06633,361.01754 C 888.06633,352.38597 892.83826,343.75439 903.0137,343.75439 913.25931,343.75439 917.89089,352.38597 917.89089,361.01754 917.89089,369.64912 913.54001,378.2807 903.0137,378.2807 892.20668,378.2807 888.06633,369.64912 888.06633,361.01754 Z"/>
	<path d="M 956.15078,354.07018 956.29113,354.07018 979.30867,390 992.50165,390 992.50165,332.10526 979.30867,332.10526 979.30867,368.03509 979.16832,368.03509 956.15078,332.10526 942.95779,332.10526 942.95779,390 956.15078,390 956.15078,354.07018 Z"/>
</svg>
